<?xml version="1.0" encoding="UTF-8"?>
<svg version="1.1" xmlns="http://www.w3.org/2000/svg" width="16" height="16">
<path d="M0 0 C1.93166016 0.01740234 1.93166016 0.01740234 3.90234375 0.03515625 C5.19269531 0.04417969 6.48304687 0.05320313 7.8125 0.0625 C8.81152344 0.07410156 9.81054688 0.08570313 10.83984375 0.09765625 C12.10070889 4.03785983 11.83984375 6.57345924 11.83984375 11.09765625 C6.55984375 11.09765625 1.27984375 11.09765625 -4.16015625 11.09765625 C-4.2578125 3.3828125 -4.2578125 3.3828125 -4.16015625 1.09765625 C-3.16015625 0.09765625 -3.16015625 0.09765625 0 0 Z " fill="#3A90FF" transform="translate(4.16015625,2.90234375)"/>
<path d="M0 0 C2.0625 0.4375 2.0625 0.4375 4 1 C3 4 3 4 0.9375 5.1875 C0.298125 5.455625 -0.34125 5.72375 -1 6 C-1.042721 4.33388095 -1.04063832 2.66617115 -1 1 C-0.67 0.67 -0.34 0.34 0 0 Z " fill="#496AFF" transform="translate(1,3)"/>
</svg>
